<svg xmlns="http://www.w3.org/2000/svg" width="215" height="44" viewBox="0 0 215 44"><g fill="#AF9966" fill-rule="evenodd"><path d="M25.6829005 22.5240889C24.9169166 21.55464 23.8872917 20.6850561 22.6162929 19.9436472 21.3806985 19.2238609 19.8382652 18.5689423 18.0290736 18.0083159 17.162443 17.7428265 16.3414597 17.4615102 15.5850506 17.1628067 14.8504632 16.8754717 14.2018262 16.5685204 13.6596254 16.2502006 13.1644079 15.9552866 12.7716185 15.6365209 12.4868239 15.2981389 12.2630409 15.0328723 12.1588314 14.7417478 12.1588314 14.4093845 12.1588314 13.6815733 12.3984241 13.1425695 12.9190259 12.707889 13.4790403 12.2460131 14.1940328 12.0215397 15.1056427 12.0215397 16.9542468 12.0215397 18.6122457 12.9183189 20.1742739 14.7535622L20.692649 15.3708085 27.0661249 9.36084928 26.6691047 8.81582683C25.4139154 7.08713598 23.8521099 5.7654844 22.0308941 4.88252573 20.2214799 4.00135037 17.8914638 3.5566388 15.1056427 3.5566388 13.3512278 3.5566388 11.7304148 3.82814692 10.2846203 4.36492159 8.81299597 4.91172735 7.53620771 5.69259182 6.48876928 6.69547772 5.43175604 7.69078457 4.60297929 8.89050271 4.01735788 10.2594119 3.4359672 11.6223024 3.14137514 13.1425695 3.14137514 14.7731786 3.14137514 16.169506 3.3219603 17.4459063 3.68335328 18.5729547 4.06077848 19.7312111 4.65397066 20.7659735 5.44756559 21.6489322 6.22156559 22.516064 7.2353809 23.310972 8.4691939 24.0031171 9.65179287 24.6660606 11.1056036 25.2677029 12.8150391 25.7986819 13.6832284 26.0347468 14.4866208 26.2884219 15.199832 26.5481156 15.8818694 26.7977782 16.4886444 27.0949214 16.9936594 27.4330805 17.4710633 27.74984 17.8422537 28.1156403 18.103668 28.5146547 18.3432606 28.8884799 18.4612756 29.3271728 18.4612756 29.8521331 18.4612756 30.6526139 18.2332618 31.3017368 17.7598659 31.8465363 17.327664 32.3440783 16.410042 32.6017658 15.1056427 32.6017658 13.9622336 32.6017658 12.9406249 32.3302577 12.0684275 31.7932601 11.1608257 31.2408815 10.2688107 30.3556937 9.41598562 29.1539694L8.94258976 28.493255 1.95454545 34.1358535 2.35913636 34.721892C2.99975719 35.650102 3.73634868 36.5038591 4.55555063 37.2668905 5.38299137 38.0437425 6.31998562 38.7185004 7.33380092 39.2650832 8.355187 39.8216972 9.51240161 40.2661858 10.7675909 40.5847286 12.0212215 40.9014881 13.4456398 41.0666667 15.0034373 41.0666667 19.0190633 41.0666667 22.1780788 40.0517435 24.3980961 38.0437425 26.6437204 36.0141191 27.7831214 33.1581568 27.7831214 29.5474109 27.7831214 28.1923224 27.6299246 26.9277366 27.321527 25.7848613 27.0111254 24.6009699 26.4571231 23.5035689 25.6829005 22.5240889M57.1345552 17.6171035C56.9655489 18.803001 56.7965426 19.9732946 56.6257549 21.1277614 56.6215242 21.1511673 56.6215242 21.1710066 56.6177388 21.1906229 56.5037319 20.659644 56.3895023 20.1306713 56.2759407 19.6016986 55.9223412 17.9336401 55.5509281 16.2700398 55.179515 14.6039876 54.8043165 12.902715 54.4251099 11.2112507 54.0341018 9.52602786 53.6393084 7.84236546 53.2425109 6.15090109 52.833912 4.44962855L52.692294 3.8653734 45.7258487 3.8653734 43.3016433 14.5469218C42.9422543 16.0966135 42.5942215 17.713402 42.2290432 19.4795422 42.1208257 19.992911 42.0168389 20.490453 41.9146335 20.980193 41.9108481 20.9525518 41.90684 20.9271397 41.90684 20.9035109 41.7338257 19.7234091 41.5470058 18.5375116 41.3408136 17.3513911 41.0030236 15.2036237 40.6398493 13.046271 40.2699948 10.9459841 39.895019 8.82184548 39.5256099 6.66805941 39.1524154 4.49889234L39.0421939 3.8653734 29.4059384 3.8653734 37.2154114 40.865822 45.0538314 40.865822 45.1994574 40.2780002C45.6158498 38.5767277 46.0794482 36.8027855 46.6156369 34.8516274 47.128668 33.0148237 47.5924891 31.1503788 47.9950759 29.3309623 48.3350926 28.0389582 48.6610811 26.7485145 48.9674747 25.4743434L49.0970685 24.9157232C49.1482825 24.711089 49.1972699 24.5104672 49.2426945 24.3078393L50.4290788 29.2208433C50.8733049 31.0558637 51.3308913 32.9026984 51.8042871 34.7613476 52.2836951 36.603947 52.7357146 38.4469923 53.1797181 40.275994L53.3211133 40.865822 61.1637641 40.865822 68.967225 3.8653734 59.3287428 3.8653734 57.1345552 17.6171035"/><polyline points="145.958 3.809 137.045 3.809 137.045 40.815 159.193 40.815 159.193 32.299 145.958 32.299 145.958 3.809"/><polyline points="163.907 40.815 186.054 40.815 186.054 32.299 172.818 32.299 172.818 26.288 184.223 26.288 184.223 17.973 172.818 17.973 172.818 12.171 186.054 12.171 186.054 3.809 163.907 3.809 163.907 40.815"/><polyline points="212.918 12.171 212.918 3.809 190.767 3.809 190.767 40.815 212.918 40.815 212.918 32.299 199.68 32.299 199.68 26.288 211.087 26.288 211.087 17.973 199.68 17.973 199.68 12.171 212.918 12.171"/><polyline points="72.615 40.815 94.762 40.815 94.762 32.299 81.529 32.299 81.529 26.288 92.932 26.288 92.932 17.973 81.529 17.973 81.529 12.171 94.762 12.171 94.762 3.809 72.615 3.809 72.615 40.815"/><polyline points="121.627 12.171 121.627 3.809 99.478 3.809 99.478 40.815 121.627 40.815 121.627 32.299 108.389 32.299 108.389 26.288 119.796 26.288 119.796 17.973 108.389 17.973 108.389 12.171 121.627 12.171"/></g></svg>
